<svg xmlns="http://www.w3.org/2000/svg" width="33.087" height="33.087" viewBox="0 0 33.087 33.087"><defs><style>.a{fill:none;}.b{fill:#fff;}</style></defs><path class="a" d="M0,0H33.087V33.087H0Z"/><path class="b" d="M15.258,22.679c5.049,0,9.464,2.171,11.866,5.411l-2.539,1.2a12.225,12.225,0,0,0-9.326-3.855,12.225,12.225,0,0,0-9.326,3.855l-2.538-1.2C5.8,24.849,10.21,22.679,15.258,22.679ZM15.258,2a6.893,6.893,0,0,1,6.893,6.893v4.136a6.893,6.893,0,0,1-13.786,0V8.893A6.893,6.893,0,0,1,15.258,2Z" transform="translate(1.285 0.757)"/></svg>