<svg xmlns="http://www.w3.org/2000/svg" width="24" height="24" viewBox="0 0 24 24"><defs><style>.a{fill:none;}.b{fill:#fff;}</style></defs><path class="a" d="M0,0H24V24H0Z"/><path class="b" d="M15.3,5.55A2.9,2.9,0,0,0,12.4,8.4l-.028,1.575a.6.6,0,0,1-.68.583l-1.561-.212a11.708,11.708,0,0,1-5.91-2.8c-.6,3.31.57,5.6,3.383,7.372l1.747,1.1a.6.6,0,0,1,.034.993L7.793,18.17a10.362,10.362,0,0,0,2.592-.131C15.1,17.1,18.24,13.547,18.24,7.691A3.021,3.021,0,0,0,15.3,5.55ZM10.4,8.36a4.9,4.9,0,0,1,8.385-3.355,3.856,3.856,0,0,0,2.669-.645A7.227,7.227,0,0,1,20.24,7.691c0,7.642-4.7,11.358-9.463,12.309-3.268.652-8.02-.419-9.382-1.841a11.546,11.546,0,0,0,5.144-1.55C5.16,15.7-.329,12.47,3.278,3.786a14.046,14.046,0,0,0,5.15,4.037,5.877,5.877,0,0,0,1.973.538Z"/></svg>