<svg xmlns="http://www.w3.org/2000/svg" width="35.569" height="35.569" viewBox="0 0 35.569 35.569"><defs><style>.a{fill:none;}.b{fill:#00243e;}</style></defs><path class="a" d="M0,0H35.569V35.569H0Z"/><path class="b" d="M28.195,31.641H4.482A1.482,1.482,0,0,1,3,30.159V3.482A1.482,1.482,0,0,1,4.482,2H28.195a1.482,1.482,0,0,1,1.482,1.482V30.159A1.482,1.482,0,0,1,28.195,31.641Zm-1.482-2.964V4.964H5.964V28.677ZM11.892,7.928v2.964a4.446,4.446,0,1,0,8.892,0V7.928h2.964v2.964a7.41,7.41,0,1,1-14.82,0V7.928Z" transform="translate(1.446 0.964)"/></svg>