<svg xmlns="http://www.w3.org/2000/svg" width="40" height="40" viewBox="0 0 40 40"><defs><style>.a{fill:none;}.b{fill:#343434;}</style></defs><path class="a" d="M0,0H40V40H0Z"/><path class="b" d="M32.3,9.778V6.389H5.367V30.111H32.3V26.722H18.833a1.689,1.689,0,0,1-1.683-1.694V11.472a1.689,1.689,0,0,1,1.683-1.694ZM3.683,3h30.3a1.689,1.689,0,0,1,1.683,1.694V31.806A1.689,1.689,0,0,1,33.983,33.5H3.683A1.689,1.689,0,0,1,2,31.806V4.694A1.689,1.689,0,0,1,3.683,3ZM20.517,13.167V23.333H32.3V13.167Zm3.367,3.389h5.05v3.389h-5.05Z" transform="translate(1.167 1.75)"/></svg>