<svg xmlns="http://www.w3.org/2000/svg" width="40" height="40" viewBox="0 0 40 40"><defs><style>.a{fill:none;}.b{fill:#343434;}</style></defs><path class="a" d="M0,0H40V40H0Z"/><path class="b" d="M18.821,2A16.821,16.821,0,1,1,2,18.821,16.821,16.821,0,0,1,18.821,2Zm0,25.232a8.389,8.389,0,0,1-3.075-.58l-3.761,3.763a13.469,13.469,0,0,0,13.672,0L21.9,26.652A8.389,8.389,0,0,1,18.821,27.232ZM5.364,18.821a13.39,13.39,0,0,0,1.864,6.836L10.991,21.9a8.436,8.436,0,0,1,0-6.15L7.228,11.985a13.4,13.4,0,0,0-1.864,6.836Zm25.05-6.836-3.763,3.761a8.437,8.437,0,0,1,0,6.15l3.763,3.761a13.469,13.469,0,0,0,0-13.672Zm-11.593,1.79a5.046,5.046,0,1,0,5.046,5.046A5.046,5.046,0,0,0,18.821,13.775Zm0-8.411a13.4,13.4,0,0,0-6.836,1.864l3.761,3.763a8.436,8.436,0,0,1,6.15,0l3.761-3.763A13.4,13.4,0,0,0,18.821,5.364Z" transform="translate(1.179 1.179)"/></svg>