<svg xmlns="http://www.w3.org/2000/svg" width="24" height="24" viewBox="0 0 24 24"><defs><style>.a,.b{fill:#343434;}.a{opacity:0;}</style></defs><rect class="a" width="24" height="24" transform="translate(24 24) rotate(180)"/><path class="b" d="M6.09,19h12l-1.3,1.29a1,1,0,1,0,1.42,1.42l3-3a1,1,0,0,0,0-1.42l-3-3a1,1,0,1,0-1.42,1.42L18.09,17h-12A1.56,1.56,0,0,1,4.5,15.47V13a1,1,0,1,0-2,0v2.47A3.56,3.56,0,0,0,6.09,19Z"/><path class="b" d="M5.79,9.71A1,1,0,0,0,7.21,8.29L5.91,7h12A1.56,1.56,0,0,1,19.5,8.53V11a1,1,0,0,0,2,0V8.53A3.56,3.56,0,0,0,17.91,5h-12l1.3-1.29A1,1,0,1,0,5.79,2.29l-3,3a1,1,0,0,0,0,1.42Z"/></svg>