<svg xmlns="http://www.w3.org/2000/svg" width="24" height="24" viewBox="0 0 24 24"><defs><style>.a{fill:none;}.b{fill:#00243e;}</style></defs><path class="a" d="M0,0H24V24H0Z"/><path class="b" d="M21,11.646V21a1,1,0,0,1-1,1H4a1,1,0,0,1-1-1V11.646A3.985,3.985,0,0,1,2,9V3A1,1,0,0,1,3,2H21a1,1,0,0,1,1,1V9A3.99,3.99,0,0,1,21,11.646Zm-2,1.228a4.007,4.007,0,0,1-4-1.228,4,4,0,0,1-6,0,3.99,3.99,0,0,1-4,1.228V20H19V12.874ZM14,9a1,1,0,0,1,2,0,2,2,0,0,0,4,0V4H4V9A2,2,0,0,0,8,9a1,1,0,0,1,2,0,2,2,0,0,0,4,0Z"/></svg>