<svg xmlns="http://www.w3.org/2000/svg" width="38" height="38" viewBox="0 0 38 38"><defs><style>.a{fill:none;}</style></defs><path class="a" d="M0,0H38V38H0Z"/><path d="M31.5,24.248v5.6a1.583,1.583,0,0,1-1.472,1.58c-.692.048-1.257.073-1.694.073A25.332,25.332,0,0,1,3,6.167q0-.656.073-1.694A1.583,1.583,0,0,1,4.653,3h5.6a.792.792,0,0,1,.788.713c.036.364.07.654.1.874a22.01,22.01,0,0,0,1.913,6.335.721.721,0,0,1-.233.9L9.4,14.261A20.658,20.658,0,0,0,20.241,25.1l2.438-3.411a.731.731,0,0,1,.907-.236,22.01,22.01,0,0,0,6.333,1.908c.22.032.51.067.871.1a.792.792,0,0,1,.711.788Z" transform="translate(1.75 1.75)"/></svg>