<svg xmlns="http://www.w3.org/2000/svg" width="18" height="18" viewBox="0 0 18 18"><defs><style>.a{fill:none;}.b{fill:#00243e;}</style></defs><path class="a" d="M0,0H18V18H0Z"/><path class="b" d="M15.825,17.053H3.754A.754.754,0,0,1,3,16.3V2.753A.754.754,0,0,1,3.754,2H15.825a.754.754,0,0,1,.754.753V16.3A.754.754,0,0,1,15.825,17.053Zm-.754-1.505V3.505H4.509V15.548ZM7.527,5.011V6.516a2.263,2.263,0,0,0,4.527,0V5.011h1.509V6.516a3.772,3.772,0,0,1-7.544,0V5.011Z" transform="translate(-0.79 -0.527)"/></svg>