<svg xmlns="http://www.w3.org/2000/svg" xmlns:xlink="http://www.w3.org/1999/xlink" width="77.476" height="82.075" viewBox="0 0 77.476 82.075"><defs><style>.a{fill:#fe0162;}.b{filter:url(#a);}</style><filter id="a" x="0" y="0" width="77.476" height="82.075" filterUnits="userSpaceOnUse"><feOffset dy="10" input="SourceAlpha"/><feGaussianBlur stdDeviation="6" result="b"/><feFlood flood-color="#fe0162" flood-opacity="0.224"/><feComposite operator="in" in2="b"/><feComposite in="SourceGraphic"/></filter></defs><g class="b" transform="matrix(1, 0, 0, 1, 0, 0)"><path class="a" d="M44.476,34.257V15.823a4.608,4.608,0,0,0-2.3-3.986L26.042,2.619a4.608,4.608,0,0,0-4.608,0L5.3,11.836A4.608,4.608,0,0,0,3,15.823V34.257a4.608,4.608,0,0,0,2.3,3.986l16.13,9.217a4.608,4.608,0,0,0,4.608,0l16.13-9.217A4.608,4.608,0,0,0,44.476,34.257Z" transform="translate(15 6)"/></g></svg>