<svg xmlns="http://www.w3.org/2000/svg" width="24.822" height="24.822" viewBox="0 0 24.822 24.822"><defs><style>.a{fill:none;}.b{fill:#00243e;}</style></defs><path class="a" d="M0,0H24.822V24.822H0Z"/><path class="b" d="M11.308,2.05V4.131a8.274,8.274,0,1,0,6.108,14.746l1.472,1.472a10.343,10.343,0,1,1-7.58-18.3ZM22.633,13.375a10.288,10.288,0,0,1-2.283,5.51l-1.472-1.471a8.235,8.235,0,0,0,1.673-4.04h2.082ZM13.379,2.05a10.346,10.346,0,0,1,9.256,9.256H20.553a8.279,8.279,0,0,0-7.175-7.176V2.049Z" transform="translate(0.068 0.07)"/></svg>