<svg xmlns="http://www.w3.org/2000/svg" width="40" height="40" viewBox="0 0 40 40"><defs><style>.a{fill:none;}.b{fill:#343434;}</style></defs><path class="a" d="M0,0H40V40H0Z"/><path class="b" d="M27.167,12.5h3.222A1.627,1.627,0,0,1,32,14.143V33.857A1.627,1.627,0,0,1,30.389,35.5H4.611A1.627,1.627,0,0,1,3,33.857V14.143A1.627,1.627,0,0,1,4.611,12.5H7.833V10.857A9.763,9.763,0,0,1,17.5,1a9.763,9.763,0,0,1,9.667,9.857ZM6.222,15.786V32.214H28.778V15.786Zm9.667,6.571h3.222v3.286H15.889Zm-6.444,0h3.222v3.286H9.444Zm12.889,0h3.222v3.286H22.333ZM23.944,12.5V10.857a6.446,6.446,0,1,0-12.889,0V12.5Z" transform="translate(2.5 0.833)"/></svg>