<svg xmlns="http://www.w3.org/2000/svg" width="96.472" height="82.384" viewBox="0 0 96.472 82.384"><defs><style>.a{fill:#91be54;}.b{fill:#658b30;}.c{fill:#d0ecb7;}.d{fill:#79a73a;}.e{fill:#89b140;}</style></defs><g transform="translate(0 -28.588)"><path class="a" d="M82.79,59.721V81.4l13.682-5.2L77.513,28.588,0,59.721"/><path class="b" d="M98.79,163.067V138.94H21.874L16,141.3v1.583H94.848v21.683Z" transform="translate(-12.058 -83.161)"/><path class="a" d="M0,154.94H82.79v51.251H0Z" transform="translate(0 -95.219)"/><path class="c" d="M32,196.224a13.828,13.828,0,0,0,9.284-9.284H89.736a13.827,13.827,0,0,0,9.284,9.284v16.913a13.826,13.826,0,0,0-9.284,9.284H41.282A13.828,13.828,0,0,0,32,213.137Z" transform="translate(-24.115 -119.334)"/><circle class="d" cx="9.856" cy="9.856" r="9.856" transform="translate(31.539 75.49)"/><path class="c" d="M147.741,100.681l-4.674-12.024-.213-.53a13.828,13.828,0,0,1-12.06-5.186l-.528.213L88,100.681Z" transform="translate(-66.317 -40.96)"/><path class="e" d="M97.507,138.94,88,142.882h59.741l-1.532-3.942Z" transform="translate(-66.317 -83.161)"/><g transform="translate(17.741 83.375)"><circle class="d" cx="1.971" cy="1.971" r="1.971" transform="translate(0 0)"/><circle class="d" cx="1.971" cy="1.971" r="1.971" transform="translate(43.366 0)"/></g></g></svg>