<svg xmlns="http://www.w3.org/2000/svg" width="40" height="40" viewBox="0 0 40 40"><defs><style>.a{fill:none;}.b{fill:#343434;}</style></defs><path class="a" d="M0,0H40V40H0Z"/><path class="b" d="M26.106,25.2h3.3V5.314H12.9V8.628h13.2Zm0,3.314v4.971a1.659,1.659,0,0,1-1.662,1.657H4.662A1.655,1.655,0,0,1,3,33.481l0-23.2A1.659,1.659,0,0,1,4.667,8.628H9.6V3.657A1.654,1.654,0,0,1,11.252,2H31.057a1.654,1.654,0,0,1,1.65,1.657v23.2a1.654,1.654,0,0,1-1.65,1.657ZM6.306,11.942l0,19.883h16.5V11.942ZM9.6,25.2h7.427a.828.828,0,0,0,0-1.657H12.077a4.142,4.142,0,0,1,0-8.285H12.9V13.6h3.3v1.657h3.3v3.314H12.077a.828.828,0,0,0,0,1.657h4.951a4.142,4.142,0,0,1,0,8.285H16.2v1.657H12.9V28.511H9.6Z" transform="translate(2.146 1.431)"/></svg>