<svg xmlns="http://www.w3.org/2000/svg" width="38" height="37" viewBox="0 0 38 37"><defs><style>.a,.b{fill:#00243e;}.a{opacity:0;}</style></defs><g transform="translate(-0.344 -0.133)"><g transform="translate(0.344 0.133)"><rect class="a" width="38" height="37" transform="translate(0 0)"/><path class="b" d="M17.713,30.711a1.571,1.571,0,0,1-1.116-.456L4.389,18.031A8.222,8.222,0,1,1,16.016,6.4l1.7,1.7,1.7-1.7A8.222,8.222,0,1,1,31.037,18.031L18.829,30.255a1.571,1.571,0,0,1-1.116.456ZM10.2,7.142A5.028,5.028,0,0,0,6.62,8.619a5.091,5.091,0,0,0,0,7.181L17.713,26.908,28.806,15.8a5.091,5.091,0,0,0,0-7.181,5.217,5.217,0,0,0-7.165,0l-2.813,2.828a1.571,1.571,0,0,1-2.231,0L13.785,8.619A5.028,5.028,0,0,0,10.2,7.142Z" transform="translate(1.277 1.903)"/></g></g></svg>