<svg xmlns="http://www.w3.org/2000/svg" width="39" height="39" viewBox="0 0 39 39"><defs><style>.a{fill:none;}.b{fill:#00243e;}</style></defs><path class="a" d="M0,0H39V39H0Z"/><path class="b" d="M30.788,34.615H4.635A1.633,1.633,0,0,1,3,32.984V3.631A1.633,1.633,0,0,1,4.635,2H30.788a1.633,1.633,0,0,1,1.635,1.631V32.984A1.633,1.633,0,0,1,30.788,34.615Zm-1.635-3.262V5.262H6.269V31.354ZM12.808,8.523v3.262a4.9,4.9,0,0,0,9.808,0V8.523h3.269v3.262a8.173,8.173,0,0,1-16.346,0V8.523Z" transform="translate(1.789 1.192)"/></svg>