<svg xmlns="http://www.w3.org/2000/svg" width="35.607" height="35.607" viewBox="0 0 35.607 35.607"><defs><style>.a{fill:none;}.b{fill:#00243e;}</style></defs><path class="a" d="M0,0H35.607V35.607H0Z"/><path class="b" d="M16.162,24.254c5.433,0,10.185,2.337,12.769,5.823L26.2,31.37a13.156,13.156,0,0,0-10.037-4.148A13.156,13.156,0,0,0,6.125,31.37L3.394,30.076C5.978,26.589,10.729,24.254,16.162,24.254ZM16.162,2A7.418,7.418,0,0,1,23.58,9.418v4.451a7.418,7.418,0,0,1-14.836,0V9.418A7.418,7.418,0,0,1,16.162,2Z" transform="translate(1.641 0.967)"/></svg>