<svg xmlns="http://www.w3.org/2000/svg" width="14.35" height="14.393" viewBox="0 0 14.35 14.393"><defs><style>.a{fill:#fff;stroke:#fff;stroke-width:0.3px;}</style></defs><g transform="translate(0.15 0.15)"><g transform="translate(0)"><path class="a" d="M228.863,15.6l-3.452-3.452a.576.576,0,0,0-.817,0L221.145,15.6a.578.578,0,0,0,.817.817l2.457-2.457V24.072a.585.585,0,0,0,1.17,0V13.957l2.457,2.457a.578.578,0,0,0,.817-.817Z" transform="translate(-214.983 -11.975)"/><path class="a" d="M19.863,67.943a.576.576,0,0,0-.817,0L16.589,70.4V60.285a.585.585,0,1,0-1.17,0V70.4l-2.457-2.457a.578.578,0,0,0-.817.817L15.6,72.212a.576.576,0,0,0,.817,0l3.452-3.452a.579.579,0,0,0,0-.817Z" transform="translate(-11.975 -58.332)"/></g></g></svg>